<svg xmlns="http://www.w3.org/2000/svg" viewBox="0 0 34 34" enable-background="new 0 0 50 50"><defs id="defs12"><style id="style3137" type="text/css">.fil0 {fill:#2250A3}</style></defs><path d="M17 34C7.6 34 0 26.4 0 17S7.6 0 17 0s17 7.6 17 17-7.6 17-17 17zm0-32C8.7 2 2 8.7 2 17s6.7 15 15 15 15-6.7 15-15S25.3 2 17 2z" id="path4"/><style id="style4" type="text/css">.st0{fill:#0168D3;} .st1{fill:#FC020D;stroke:#fff;stroke-width:10;} .st2{fill:none;stroke:#fff;stroke-width:8;}</style><path id="path4126" d="M17.02 25.177l-9.52-9.44v-8.12l9.52 9.438 9.48-9.398-.002 8.123-9.478 9.397zm-2.604-.808v1.13H7.5v-7.987l6.916 6.856zM26.5 17.513V25.5h-6.917v-1.13l6.917-6.856z" clip-rule="evenodd" fill-rule="evenodd"/></svg>