<svg xmlns="http://www.w3.org/2000/svg" viewBox="0 0 34 34" enable-background="new 0 0 50 50"><defs id="defs12"><style id="style3137" type="text/css">.fil0 {fill:#2250A3}</style><style id="style3137-5" type="text/css">.fil0 {fill:#2250A3}</style></defs><path d="M17 34C7.6 34 0 26.4 0 17S7.6 0 17 0s17 7.6 17 17-7.6 17-17 17zm0-32C8.7 2 2 8.7 2 17s6.7 15 15 15 15-6.7 15-15S25.3 2 17 2z" id="path4"/><g id="g5232"><g id="g4333"><path d="M18.87 18.95l-1.873-4.024-1.87 4.025.864.01.957 1.047.05-.05.05.05.957-1.046z" id="path2182"/><path d="M19.114 18.71L21.57 24H28L21.72 8.27l-4.477 6.416z" id="path2184"/><path d="M16.76 14.686L12.29 8.27 6 24h6.442l2.445-5.29z" id="path2186"/></g></g></svg>