<svg xmlns="http://www.w3.org/2000/svg" viewBox="0 0 34 34" enable-background="new 0 0 50 50"><defs id="defs12"><style id="style3137" type="text/css">.fil0 {fill:#2250A3}</style></defs><path d="M17 34C7.6 34 0 26.4 0 17S7.6 0 17 0s17 7.6 17 17-7.6 17-17 17zm0-32C8.7 2 2 8.7 2 17s6.7 15 15 15 15-6.7 15-15S25.3 2 17 2z" id="path4"/><style id="style4" type="text/css">.st0{fill:#0168D3;} .st1{fill:#FC020D;stroke:#fff;stroke-width:10;} .st2{fill:none;stroke:#fff;stroke-width:8;}</style><path id="polygon4074" d="M7 25.35l3.862.02 2.05-8.014L16.996 26l4.092-8.644 2.048 8.015L27 25.35 22.123 6.846l-5.126 10.173-5.12-10.173z"/></svg>