<svg xmlns="http://www.w3.org/2000/svg" viewBox="0 0 34 34" enable-background="new 0 0 50 50"><defs id="defs12"><style id="style3137" type="text/css">.fil0 {fill:#2250A3}</style></defs><path d="M17 0C7.6 0 0 7.6 0 17s7.6 17 17 17 17-7.6 17-17S26.4 0 17 0zm-4.25 5.97l4.22 14.218H17l4.188-14.22s2.072.6 4.25 2.563c2.337 2.107 4.334 5.348 4.03 10.47-.25 4.033-3.25 7.5-3.25 7.5l-5.812-.03s4.992-2.624 6.188-6.782c1.428-4.908-.818-8.314-2.532-9.938-.678-.607-1.7-.772-2.093.53C20.665 14.44 17 26.345 17 26.345L12.03 10.28c-.374-1.302-1.396-1.137-2.092-.53-1.714 1.624-3.928 5.03-2.5 9.938 1.195 4.158 6.156 6.78 6.156 6.78l-5.78.032c-.002 0-3.015-3.45-3.283-7.5-.338-5.122 1.68-8.363 4-10.47 2.18-1.98 4.22-2.56 4.22-2.56z" id="path4"/></svg>