<svg xmlns="http://www.w3.org/2000/svg" viewBox="0 0 34 34"><path d="M17 34C7.6 34 0 26.4 0 17S7.6 0 17 0s17 7.6 17 17-7.6 17-17 17zm0-32C8.7 2 2 8.7 2 17s6.7 15 15 15 15-6.7 15-15S25.3 2 17 2zM28.97 18.804C28.73 22.676 25.836 26 25.836 26l-5.568-.017s4.78-2.536 5.928-6.528c1.37-4.71-.77-7.984-2.416-9.543-.652-.582-1.628-.72-2.005.53-1.25 3.993-4.763 15.42-4.763 15.42h-.017l-4.763-15.42c-.36-1.25-1.336-1.112-2.005-.53-1.644 1.56-3.786 4.832-2.415 9.543 1.148 3.992 5.928 6.528 5.928 6.528L8.17 26s-2.877-3.307-3.134-7.196c-.325-4.917 1.594-8.018 3.82-10.04 2.09-1.9 4.078-2.467 4.078-2.467l4.044 13.655h.034l4.01-13.655s1.986.583 4.077 2.467c2.242 2.022 4.16 5.123 3.87 10.04z"/></svg>