<svg xmlns="http://www.w3.org/2000/svg" viewBox="0 0 34 34"><path d="M17 0C7.6 0 0 7.6 0 17s7.6 17 17 17 17-7.6 17-17S26.4 0 17 0zm-4.25 5.97l4.22 14.218.03.012L21.2 6s2.122.537 4.3 2.5c2.337 2.107 4.304 5.378 4 10.5-.25 4.033-3.5 7.5-3.5 7.5h-5.6s4.904-2.642 6.1-6.8c1.428-4.908-.786-8.326-2.5-9.95-.678-.607-1.607-.752-2 .55-1.304 4.16-5 16.05-5 16.05L12 10.3c-.374-1.302-1.304-1.157-2-.55-1.714 1.624-3.928 5.042-2.5 9.95 1.195 4.158 6.1 6.8 6.1 6.8H8c-.002 0-3.232-3.45-3.5-7.5-.338-5.122 1.68-8.393 4-10.5C10.68 6.52 12.8 6 12.8 6z"/></svg>