<svg xmlns="http://www.w3.org/2000/svg" viewBox="0 0 34 34"><path d="M28.473 6.54c-2.96-2.67-5.777-3.496-5.777-3.496l-5.68 19.344h-.048L11.24 3.044s-2.815.8-5.776 3.495C2.308 9.4-.41 13.794.05 20.76c.365 5.51 4.443 10.194 4.443 10.194l7.888-.024s-6.77-3.592-8.396-9.248c-1.94-6.674 1.092-11.31 3.423-13.52.946-.824 2.33-1.018 2.84.754l6.747 21.844h.024s4.976-16.19 6.747-21.844c.534-1.772 1.918-1.578 2.84-.753 2.33 2.21 5.364 6.845 3.422 13.52-1.626 5.655-8.398 9.247-8.398 9.247l7.89.024s4.1-4.71 4.44-10.194c.412-6.966-2.306-11.36-5.486-14.223z"/></svg>