<svg xmlns="http://www.w3.org/2000/svg" viewBox="0 0 34 34"><path d="M27.123 6.46c-2.612-2.356-5.097-3.085-5.097-3.085l-5.012 17.067h-.042L11.918 3.375s-2.484.706-5.096 3.083C4.037 8.984 1.64 12.86 2.045 19.006 2.367 23.866 5.965 28 5.965 28l6.96-.02s-5.973-3.17-7.41-8.16c-1.71-5.89.965-9.98 3.02-11.93.836-.727 2.057-.898 2.507.666l5.953 19.273h.02s4.39-14.286 5.954-19.274c.47-1.564 1.69-1.393 2.505-.665 2.056 1.95 4.732 6.04 3.02 11.93-1.436 4.99-7.41 8.16-7.41 8.16l6.96.02s3.618-4.156 3.918-8.994c.365-6.146-2.033-10.023-4.84-12.55z"/></svg>