<?xml version="1.0" standalone="no"?>
<!DOCTYPE svg PUBLIC "-//W3C//DTD SVG 1.1//EN" "http://www.w3.org/Graphics/SVG/1.1/DTD/svg11.dtd" >
<!--
2014-12-27: Created with FontForge (http://fontforge.org)
-->
<svg xmlns="http://www.w3.org/2000/svg" xmlns:xlink="http://www.w3.org/1999/xlink" version="1.1">
<metadata>
Created by FontForge 20141127 at Sat Dec 27 10:32:02 2014
 By Sergey Leschina
Copyright (c) 2014, Sergey Leschina
</metadata>
<defs>
<font id="metro-icons" horiz-adv-x="340" >
  <font-face 
    font-family="metro-icons"
    font-weight="400"
    font-stretch="normal"
    units-per-em="340"
    panose-1="2 0 5 9 0 0 0 0 0 0"
    ascent="280"
    descent="-60"
    bbox="-0.0302734 -60 340 280"
    underline-thickness="17"
    underline-position="-34"
    unicode-range="U+F100-F117"
  />
    <missing-glyph />
    <glyph glyph-name="uniF102" unicode="&#xf102;" 
d="M170 280c94 0 170 -76 170 -170s-76 -170 -170 -170s-170 76 -170 170s76 170 170 170zM70 208.12v0.0195312v-85.3398l100.3 -99.3594l99.7002 98.7598v85.5996l-99.7002 -99.0498zM70 104.06v-84.0596h72.7998v11.8799zM270 104.06v-0.00976562l-72.7998 -72.1699
v-11.8799h72.7998v84.0596z" />
    <glyph glyph-name="uniF115" unicode="&#xf115;" 
d="M116.85 112.37l-26.6494 -104.19l-50.2002 0.260742l63.4004 240.56l66.5498 -132.24l66.6494 132.24l63.4004 -240.57l-50.2002 -0.269531l-26.6494 104.2l-53.2002 -112.36z" />
    <glyph glyph-name="uniF111" unicode="&#xf111;" 
d="M170 280c94 0 170 -76 170 -170s-76 -170 -170 -170s-170 76 -170 170s76 170 170 170zM127.5 220.3l0.5 -0.299805s-21.2002 -5.2002 -43 -25c-23.2002 -21.0703 -43.3799 -53.7803 -40 -105c2.67969 -40.5 34.9805 -75 35 -75h56s-49.0498 26.4199 -61 68
c-14.2803 49.0801 7.86035 83.2598 25 99.5c6.95996 6.07031 16.2598 7.51953 20 -5.5l50 -160.5s36.96 118.9 50 160.5c3.92969 13.0195 13.2197 11.5703 20 5.5c17.1396 -16.2402 39.2803 -50.4199 25 -99.5c-11.96 -41.5801 -61 -68 -61 -68h56s32.5 34.6699 35 75
c3.04004 51.2197 -16.6299 83.9297 -40 105c-21.7803 19.6299 -43 25 -43 25l-42 -142l-0.299805 0.120117z" />
    <glyph glyph-name="uniF112" unicode="&#xf112;" 
d="M170 -40l-67.5 140c-9.12988 -60.5 -24.0195 -105.37 -102.5 -100l82.5 245l87.5 -152.6l87.5 152.6l82.5 -245c-78.4697 -5.36035 -93.3701 39.5 -102.5 100z" />
    <glyph glyph-name="uniF105" unicode="&#xf105;" 
d="M170 280c94 0 170 -76 170 -170s-76 -170 -170 -170s-170 76 -170 170s76 170 170 170zM118.75 206.56v0.0205078l-68.75 -171.57h70.3096l26.5605 57.7998l20.6299 43.75zM221.55 206.56h0.00976562l-49.0596 -70l20.6201 -43.7598l26.8799 -57.7998h70zM170 134.06
l-20.2998 -44.0596h9.37012l10.2998 -11.5596l0.629883 0.619141l0.620117 -0.619141l10.3203 11.5596h9.35938z" />
    <glyph glyph-name="uniF110" unicode="&#xf110;" 
d="M170 -60c-94 0 -170 76 -170 170s76 170 170 170s170 -76 170 -170s-76 -170 -170 -170zM170 260c-83 0 -150 -67 -150 -150s67 -150 150 -150s150 67 150 150s-67 150 -150 150zM289.7 91.96c-2.40039 -38.7197 -31.3398 -71.96 -31.3398 -71.96l-55.6807 0.169922
s47.8008 25.3604 59.2803 65.2803c13.7002 47.0996 -7.7002 79.8398 -24.1602 95.4297c-6.51953 5.82031 -16.2803 7.2002 -20.0498 -5.2998c-12.5 -39.9297 -47.6299 -154.2 -47.6299 -154.2h-0.169922l-47.6299 154.2c-3.60059 12.5 -13.3604 11.1201 -20.0508 5.2998
c-16.4395 -15.5996 -37.8594 -48.3203 -24.1494 -95.4297c11.4795 -39.9199 59.2803 -65.2803 59.2803 -65.2803l-55.7002 -0.169922s-28.7705 33.0703 -31.3398 71.96c-3.25 49.1699 15.9395 80.1797 38.1992 100.4c20.9004 19 40.7803 24.6699 40.7803 24.6699
l40.4404 -136.55h0.339844l40.0996 136.55s19.8604 -5.83008 40.7705 -24.6699c22.4199 -20.2207 41.5996 -51.2305 38.7002 -100.4h0.00976562z" />
    <glyph glyph-name="uniF10B" unicode="&#xf10b;" 
d="M170 280c94 0 170 -76 170 -170s-76 -170 -170 -170s-170 76 -170 170s76 170 170 170zM118.12 195.3h0.00976562l-68.1299 -154.01h82.1904l11.5596 30.2998l25.9502 -36.5703l27.5 36.5605l15.2998 -30h77.5l-69.0801 153.729l-51.2295 -65.9297z" />
    <glyph glyph-name="uniF113" unicode="&#xf113;" 
d="M170 -60c-94 0 -170 76 -170 170s76 170 170 170s170 -76 170 -170s-76 -170 -170 -170zM170 260c-83 0 -150 -67 -150 -150s67 -150 150 -150s150 67 150 150s-67 150 -150 150zM170 15l-43.7402 92.0801c-5.91016 -39.1396 -15.4795 -67.2998 -66.2598 -63.8398
l53.2998 157.7l56.7002 -98.7402l56.7002 98.75l53.2998 -157.7c-50.7803 -3.46973 -60.3604 24.6904 -66.2598 63.8301z" />
    <glyph glyph-name="uniF100" unicode="&#xf100;" 
d="M170.28 4.40039l-130.28 129.18v111.12l130.28 -129.15l129.72 128.62l-0.0195312 -111.17zM134.64 15.4697v-15.4697h-94.6396v109.3l94.6299 -93.8301h0.00976562zM299.98 109.27v-109.27h-94.6406l0.0302734 15.4502l94.6299 93.8301z" />
    <glyph glyph-name="uniF108" unicode="&#xf108;" 
d="M170 280c94 0 170 -76 170 -170s-76 -170 -170 -170s-170 76 -170 170s76 170 170 170zM120.94 209.06v0.0107422l-55.9404 -147.2h-15v-20.2998h77.79v20.2998h-13.0996l16.25 45.9297l39.0596 -67.7998l39.0596 67.8096l16.2402 -45.9297h-13.0996v-20.3203h77.7998
v20.3203h-15l-55.9404 147.18l-49.0596 -90.6191z" />
    <glyph glyph-name="uniF109" unicode="&#xf109;" 
d="M340 5.62988h-109.7l-22 42.5303l-38.5498 -51.7998l-36.7998 51.96l-16.6006 -42.9404h-116.35l96.3203 218.25l73.4297 -93.6299l72.25 93.6299z" />
    <glyph glyph-name="uniF114" unicode="&#xf114;" 
d="M170 280c94 0 170 -76 170 -170s-76 -170 -170 -170s-170 76 -170 170s76 170 170 170zM108.12 211.56h0.00976562l-58.1299 -172.18c55.4004 -3.79004 65.7402 26.9805 72.2002 69.6797l47.7998 -100.619l47.7998 100.619
c6.45996 -42.6797 16.7998 -73.4795 72.2002 -69.6797l-58.1201 172.18l-61.8799 -107.8z" />
    <glyph glyph-name="uniF107" unicode="&#xf107;" 
d="M170 -60c-94 0 -170 76 -170 170s76 170 170 170s170 -76 170 -170s-76 -170 -170 -170zM170 260c-83 0 -150 -67 -150 -150s67 -150 150 -150s150 67 150 150s-67 150 -150 150zM170 40l35.75 62.1299l14.8398 -42.0801h-12v-18.5195h71.4102v18.5195h-13.6299
l-51.2705 134.9l-45.0996 -83.0498l-45.0996 83.0596l-51.2705 -134.9h-13.6299v-18.5293h71.4004v18.5195h-12l14.8496 42.0801l35.75 -62.1299z" />
    <glyph glyph-name="uniF106" unicode="&#xf106;" 
d="M170 -2.37012l55.25 97.3701l22.75 -65h-18v-30h110v30h-21l-79.2998 210l-69.7002 -130l-69.7002 130l-79.2998 -210h-21v-30h110v30h-18l22.75 65l55.25 -100z" />
    <glyph glyph-name="uniF10A" unicode="&#xf10a;" 
d="M170 -60c-94 0 -170 76 -170 170s76 170 170 170s170 -76 170 -170s-76 -170 -170 -170zM170 260c-83 0 -150 -67 -150 -150s67 -150 150 -150s150 67 150 150s-67 150 -150 150zM169.84 126.46l46.7402 60.5996l63.4199 -141.079h-71l-14.2002 27.5l-24.9697 -33.4805
l-23.7998 33.6201l-10.75 -27.7998h-75.2803l62.3301 141.229z" />
    <glyph glyph-name="uniF116" unicode="&#xf116;" 
d="M170 -60c-94 0 -170 76 -170 170s76 170 170 170s170 -76 170 -170s-76 -170 -170 -170zM170 260c-83 0 -150 -67 -150 -150s67 -150 150 -150s150 67 150 150s-67 150 -150 150zM70 26.5l48.7695 185.04l51.2002 -101.74l51.2607 101.74l48.7695 -185.04
l-38.6396 -0.209961l-20.4805 80.1504l-40.9199 -86.4404l-40.8398 86.4404l-20.5 -80.1406z" />
    <glyph glyph-name="uniF104" unicode="&#xf104;" 
d="M170 -60c-94 0 -170 76 -170 170s76 170 170 170s170 -76 170 -170s-76 -170 -170 -170zM170 260c-83 0 -150 -67 -150 -150s67 -150 150 -150s150 67 150 150s-67 150 -150 150zM188.7 90.5l-8.64062 -0.129883l-9.56934 -10.46l-0.5 0.5l-0.5 -0.5l-9.58008 10.4795
l-8.64062 0.100586l18.7002 40.25zM191.14 92.9004l-18.71 40.2393l44.7705 64.1602l62.7998 -157.3h-64.2998zM167.6 133.14l-18.7295 -40.2393l-24.4502 -52.9004h-64.4199l62.9004 157.3z" />
    <glyph glyph-name="uniF117" unicode="&#xf117;" 
d="M170 280c94 0 170 -76 170 -170s-76 -170 -170 -170s-170 76 -170 170s76 170 170 170zM113.75 225.62v0.00976562l-53.75 -203.43l42.5 -0.330078l22.5 88.1299l45 -95l45 95l22.5 -88.1396l42.5 0.319336l-53.75 203.46l-56.25 -111.88z" />
    <glyph glyph-name="uniF103" unicode="&#xf103;" 
d="M198.83 78.0303l-13.3799 -0.160156l-14.7705 -16.1602l-0.779297 0.780273l-0.780273 -0.770508l-14.7705 16.1504l-13.3691 0.160156l28.9199 62.1699zM202.6 81.7402l-28.8994 62.1797l69.2002 99.1396l97.0293 -243.06h-99.3701zM166.22 143.92l-28.9199 -62.1797
l-37.7998 -81.7402h-99.5303l97.2002 243.06z" />
    <glyph glyph-name="uniF10F" unicode="&#xf10f;" 
d="M271.23 215.4l-0.0107422 0.0400391c28.0703 -25.2705 52.0498 -64.04 48.4004 -125.5c-3 -48.3809 -39.1797 -89.9404 -39.1797 -89.9404l-69.6006 0.200195s59.7402 31.7002 74.1006 81.5996c17.1191 58.9004 -9.64062 99.7998 -30.2002 119.3
c-8.15039 7.28027 -20.3506 8.99023 -25.0498 -6.64941c-15.6406 -49.8799 -59.54 -192.74 -59.54 -192.74h-0.200195l-59.5303 192.73c-4.5 15.6396 -16.71 13.9297 -25.0703 6.65918c-20.5498 -19.5 -47.2998 -60.3994 -30.1992 -119.3
c14.3691 -49.8994 74.0996 -81.5996 74.0996 -81.5996l-69.5996 -0.200195s-35.9805 41.3398 -39.2002 89.9404c-4.0498 61.46 19.9199 100.22 47.7695 125.479c26.1201 23.7705 50.96 30.8301 50.96 30.8301l50.54 -170.67h0.419922l50.1201 170.67
s24.8506 -7.29004 50.9707 -30.8496z" />
    <glyph glyph-name="uniF101" unicode="&#xf101;" 
d="M170 -60c-94 0 -170 76 -170 170s76 170 170 170s170 -76 170 -170s-76 -170 -170 -170zM170 260c-83 0 -150 -67 -150 -150s67 -150 150 -150s150 67 150 150s-67 150 -150 150zM170.2 28.2305l-95.2002 94.3994v81.2002l95.2002 -94.3799l94.7998 93.9795
l-0.0195312 -81.2295zM144.16 36.3096v-11.2998h-69.1602v79.8906l69.1602 -68.5605v-0.0302734zM265 104.88v-79.8799h-69.1699v11.2998l69.1699 68.5605v0.0195312z" />
  </font>
</defs>
</svg>
